<?xml version="1.0" encoding="UTF-8" standalone="no"?>
<svg
   xmlns:dc="http://purl.org/dc/elements/1.1/"
   xmlns:cc="http://creativecommons.org/ns#"
   xmlns:rdf="http://www.w3.org/1999/02/22-rdf-syntax-ns#"
   xmlns:svg="http://www.w3.org/2000/svg"
   xmlns="http://www.w3.org/2000/svg"
   xmlns:sodipodi="http://sodipodi.sourceforge.net/DTD/sodipodi-0.dtd"
   xmlns:inkscape="http://www.inkscape.org/namespaces/inkscape"
   width="1920"
   height="1080"
   viewBox="0 0 508 285.75"
   version="1.1"
   id="svg8"
   sodipodi:docname="meter.svg"
   inkscape:export-filename="C:\Users\Jack\Pictures\BdW\meter_bk.png"
   inkscape:export-xdpi="96"
   inkscape:export-ydpi="96"
   inkscape:version="1.0.1 (3bc2e813f5, 2020-09-07)">
  <defs
     id="defs2">
    <marker
       style="overflow:visible;"
       id="Arrow1Lend"
       refX="0.0"
       refY="0.0"
       orient="auto"
       inkscape:stockid="Arrow1Lend"
       inkscape:isstock="true">
      <path
         transform="scale(0.8) rotate(180) translate(12.5,0)"
         style="fill-rule:evenodd;stroke:#ffffff;stroke-width:1pt;stroke-opacity:1;fill:#ffffff;fill-opacity:1"
         d="M 0.0,0.0 L 5.0,-5.0 L -12.5,0.0 L 5.0,5.0 L 0.0,0.0 z "
         id="path1090" />
    </marker>
  </defs>
  <sodipodi:namedview
     id="base"
     pagecolor="#ffffff"
     bordercolor="#666666"
     borderopacity="1.0"
     inkscape:pageopacity="0.0"
     inkscape:pageshadow="2"
     inkscape:zoom="0.98994949"
     inkscape:cx="832.19779"
     inkscape:cy="564.74514"
     inkscape:document-units="mm"
     inkscape:current-layer="layer1"
     inkscape:document-rotation="0"
     showgrid="false"
     units="px"
     inkscape:snap-bbox="true"
     inkscape:snap-bbox-midpoints="true"
     inkscape:snap-object-midpoints="true"
     inkscape:snap-center="true"
     inkscape:snap-bbox-edge-midpoints="false"
     inkscape:bbox-nodes="false"
     inkscape:bbox-paths="false"
     inkscape:snap-page="true"
     inkscape:snap-intersection-paths="false"
     inkscape:object-paths="true"
     inkscape:snap-midpoints="false"
     inkscape:snap-smooth-nodes="false"
     inkscape:snap-text-baseline="false"
     inkscape:snap-others="true"
     showguides="true"
     inkscape:guide-bbox="true"
     inkscape:snap-global="true"
     inkscape:object-nodes="false"
     inkscape:window-width="2560"
     inkscape:window-height="1377"
     inkscape:window-x="4472"
     inkscape:window-y="-8"
     inkscape:window-maximized="1" />
  <metadata
     id="metadata5">
    <rdf:RDF>
      <cc:Work
         rdf:about="">
        <dc:format>image/svg+xml</dc:format>
        <dc:type
           rdf:resource="http://purl.org/dc/dcmitype/StillImage" />
        <dc:title></dc:title>
      </cc:Work>
    </rdf:RDF>
  </metadata>
  <g
     inkscape:label="Layer 1"
     inkscape:groupmode="layer"
     id="layer1">
    <rect
       style="fill:#000000;fill-opacity:1;stroke:#000000;stroke-width:0.352777;stroke-linecap:square;stroke-linejoin:round;stroke-miterlimit:4;stroke-dasharray:none;stroke-opacity:1"
       id="rect1035"
       width="508"
       height="285.75"
       x="1.3113022e-05"
       y="-1.6226044e-06" />
    <path
       id="path1448"
       style="fill:#55ff00;fill-opacity:1;stroke:none;stroke-width:0.0722314;stroke-linecap:square;stroke-linejoin:round;stroke-miterlimit:4;stroke-dasharray:none;stroke-opacity:1"
       d="m 273.2782,18.997128 c -0.1364,0.223419 -0.27489,0.446091 -0.27651,0.716798 -0.86617,5.437656 -1.73352,10.875124 -2.59988,16.312745 0.0773,0.174849 0.0571,0.424693 0.19857,0.550137 0.22693,0.173244 0.49407,0.237603 0.77262,0.271005 2.93476,0.52149 5.85769,1.117153 8.7512,1.834156 0.44131,0.09783 0.87401,0.276452 1.33019,0.279977 0.21295,-0.141348 0.52029,-0.199224 0.5778,-0.485773 1.01539,-3.607927 1.97169,-7.232655 2.94449,-10.852352 0.43127,-1.665419 0.90885,-3.320961 1.25972,-5.005735 0.0863,-0.383177 0.0995,-0.858554 -0.25747,-1.112606 -0.53414,-0.27299 -1.14139,-0.361414 -1.71512,-0.52296 -3.01237,-0.716879 -6.04602,-1.346244 -9.09293,-1.897685 -0.46765,-0.07502 -0.93849,-0.177664 -1.40648,-0.221015 -0.16205,0.04443 -0.32415,0.08887 -0.4862,0.133308 z" />
    <path
       id="path1450"
       style="fill:#55ff00;fill-opacity:1;stroke:none;stroke-width:0.0722314;stroke-linecap:square;stroke-linejoin:round;stroke-miterlimit:4;stroke-dasharray:none;stroke-opacity:1"
       d="m 286.25256,21.626464 c -0.18432,0.05903 -0.37854,0.120491 -0.45576,0.318176 -0.21748,0.309059 -0.23474,0.711804 -0.35985,1.063231 -1.34077,4.992746 -2.66556,9.989753 -3.95606,14.995715 -0.0845,0.222623 -0.0749,0.448604 -0.002,0.673459 0.01,0.247067 0.27031,0.381832 0.47816,0.459401 0.50132,0.1656 1.0115,0.33611 1.52472,0.443506 0.21506,-0.0638 0.50502,0.0036 0.62238,-0.231368 0.23286,-0.2599 0.25345,-0.636169 0.37806,-0.95236 1.53094,-5.088376 2.98052,-10.200744 4.4758,-15.299589 0.0989,-0.384245 -0.16268,-0.769515 -0.52098,-0.904243 -0.64544,-0.274423 -1.33121,-0.46746 -2.02485,-0.56912 -0.0528,-0.0045 -0.1059,0.0027 -0.1589,0.0032 z" />
    <path
       id="path1452"
       style="fill:#55ff00;fill-opacity:1;stroke:none;stroke-width:0.0722314;stroke-linecap:square;stroke-linejoin:round;stroke-miterlimit:4;stroke-dasharray:none;stroke-opacity:1"
       d="m 288.86732,22.388471 c -0.30385,-0.0038 -0.53064,0.236238 -0.65988,0.485595 -0.8006,2.509574 -1.517,5.045514 -2.26058,7.572518 -0.81804,2.81731 -1.63706,5.641726 -2.46144,8.452599 0.0571,0.202558 -0.0418,0.490939 0.18056,0.602562 0.27488,0.282137 0.68922,0.302131 1.0398,0.442004 3.29595,1.039465 6.56628,2.16894 9.76931,3.468638 0.5803,0.220215 1.12319,0.559906 1.73741,0.677108 0.18622,-0.04749 0.39028,-0.12327 0.55502,-0.21889 0.30534,-0.456196 0.47723,-0.989719 0.71868,-1.481535 1.95204,-4.38347 3.8715,-8.781707 5.74746,-13.198291 0.15609,-0.437704 0.49746,-0.920727 0.23973,-1.388456 -0.29705,-0.481049 -0.88995,-0.62233 -1.36889,-0.855937 -3.43434,-1.425371 -6.92714,-2.711764 -10.46399,-3.859415 -0.87347,-0.25789 -1.73858,-0.580681 -2.64531,-0.697498 -0.0425,-0.0036 -0.0852,-0.0015 -0.12788,-10e-4 z" />
    <path
       id="path1454"
       style="fill:#ffd502;fill-opacity:1;stroke:none;stroke-width:0.204301;stroke-linecap:square;stroke-linejoin:round;stroke-miterlimit:4;stroke-dasharray:none;stroke-opacity:1"
       d="m 253.96453,17.418643 c -0.0965,0.240922 -0.23008,0.474612 -0.18307,0.743508 0,5.472173 0,10.944347 0,16.41652 0.10358,0.16127 0.1239,0.409372 0.28245,0.513373 0.32882,0.193338 0.71231,0.141145 1.07685,0.174031 2.35742,0.129387 4.69728,0.229347 7.04938,0.414747 1.98299,0.154645 4.00777,0.345463 5.9938,0.630118 0.72691,0.08328 1.451,0.218093 2.1797,0.268333 0.38973,-0.01991 0.63685,-0.38397 0.71624,-0.736318 0.41619,-1.498104 0.65157,-3.03911 0.93347,-4.566438 0.56894,-3.339916 1.10299,-6.688226 1.47896,-10.05599 0.0409,-0.572904 0.14811,-1.155521 0.0544,-1.727429 -0.0983,-0.394645 -0.50041,-0.582233 -0.87025,-0.64202 -1.79659,-0.353124 -3.62334,-0.521925 -5.4417,-0.722467 -3.63289,-0.378423 -7.27707,-0.640756 -10.92559,-0.809784 -0.62451,-0.02372 -1.2549,-0.08356 -1.87573,-0.08467 -0.15632,0.0615 -0.31264,0.122991 -0.46896,0.184487 z" />
    <path
       id="path1456"
       style="fill:#ffd502;fill-opacity:1;stroke:none;stroke-width:0.204301;stroke-linecap:square;stroke-linejoin:round;stroke-miterlimit:4;stroke-dasharray:none;stroke-opacity:1"
       d="m 249.07451,17.458548 c -5.52503,0.291248 -11.03081,0.92014 -16.48973,1.816246 -3.02638,0.512354 -6.04967,1.08246 -9.00735,1.911275 -0.60195,0.192082 -1.3456,0.401037 -1.5855,1.059247 -0.1705,0.540946 0.0996,1.084039 0.1994,1.612313 1.23448,4.837525 2.55174,9.65329 3.8355,14.477864 0.14173,0.128223 0.22508,0.364108 0.40524,0.421473 0.27642,0.06702 0.54564,0.01687 0.81299,-0.06375 1.94999,-0.463626 3.85651,-0.942168 5.82436,-1.302981 2.16039,-0.405451 4.33308,-0.741993 6.51074,-1.039878 3.29272,-0.434425 6.65349,-0.800388 9.9931,-0.967302 1.32338,-0.07141 2.63714,-0.06166 3.97472,-0.06075 0.26498,0.04712 0.48045,-0.13434 0.71616,-0.222329 0.0993,-0.241858 0.20049,-0.483367 0.15961,-0.750607 0,-5.491765 0,-10.98353 0,-16.475297 -0.10431,-0.159341 -0.12245,-0.413342 -0.28361,-0.510246 -0.24211,-0.103661 -0.48981,-0.168139 -0.75361,-0.120001 -1.43734,0.07157 -2.87468,0.143151 -4.31202,0.214723 z" />
    <path
       id="path1458"
       style="fill:#ffd502;fill-opacity:1;stroke:none;stroke-width:0.204301;stroke-linecap:square;stroke-linejoin:round;stroke-miterlimit:4;stroke-dasharray:none;stroke-opacity:1"
       d="m 218.73488,22.499318 c -6.15397,1.902582 -12.18339,4.212149 -18.02763,6.921078 -2.20437,1.041022 -4.40126,2.110181 -6.4966,3.359427 -0.64989,0.413955 -1.33952,0.798118 -1.87425,1.361785 -0.27279,0.287496 -0.25541,0.728508 -0.0494,1.04768 1.41148,2.645526 2.92929,5.23251 4.41868,7.834467 1.16489,2.017347 2.32977,4.03469 3.49466,6.052036 0.17029,0.0874 0.31214,0.293483 0.5012,0.30259 0.28379,-0.0065 0.53035,-0.124772 0.76764,-0.270778 2.36856,-1.281012 4.7359,-2.568527 7.18382,-3.693818 1.91064,-0.886958 3.86685,-1.717689 5.80953,-2.479079 2.48526,-0.986318 5.02047,-1.837448 7.5472,-2.709416 1.28471,-0.464193 2.5843,-0.900963 3.82323,-1.47942 0.29573,-0.125832 0.55921,-0.406861 0.51413,-0.747409 -0.0186,-0.388609 -0.17499,-0.764156 -0.25484,-1.146157 -1.27943,-4.908552 -2.58363,-9.810538 -3.87987,-14.714669 -0.14165,-0.127461 -0.22424,-0.367566 -0.4048,-0.420762 -0.2581,-0.04031 -0.5116,-0.03844 -0.75338,0.07119 -0.7731,0.237083 -1.54621,0.474168 -2.31931,0.711253 z" />
    <path
       id="path1460"
       style="fill:#ffd502;fill-opacity:1;stroke:none;stroke-width:0.204301;stroke-linecap:square;stroke-linejoin:round;stroke-miterlimit:4;stroke-dasharray:none;stroke-opacity:1"
       d="m 191.65927,34.524196 c -0.70626,0.120564 -1.32351,0.522333 -1.94908,0.849719 -2.4645,1.407429 -4.81495,3.004458 -7.14452,4.622635 -2.70479,1.900767 -5.36501,3.87113 -7.87532,6.024613 -2.41148,2.058176 -4.81844,4.124485 -7.13038,6.294562 -0.43046,0.412742 -0.84603,0.852688 -1.2195,1.312345 -0.0387,0.219837 -0.2378,0.451299 -0.0674,0.655966 0.13942,0.346523 0.48316,0.547727 0.71885,0.825783 3.70033,3.705 7.40108,7.409585 11.10203,11.113964 0.18681,0.04017 0.37712,0.203407 0.56163,0.162529 0.26153,-0.08152 0.46946,-0.242995 0.65018,-0.445022 1.903,-1.829222 3.79047,-3.678598 5.8186,-5.370919 0.40772,-0.343949 0.84682,-0.70952 1.26491,-1.050226 3.38012,-2.762304 6.94929,-5.284565 10.60281,-7.670602 0.60971,-0.396762 1.2594,-0.823703 1.87798,-1.217616 0.41937,-0.275325 0.85436,-0.52714 1.28089,-0.789063 0.17419,-0.199838 0.27185,-0.465761 0.18939,-0.727801 -0.313,-0.882807 -0.79043,-1.696863 -1.20915,-2.532306 -1.74158,-3.295702 -3.55533,-6.554125 -5.4551,-9.761372 -0.43641,-0.697434 -0.82625,-1.434209 -1.3563,-2.065994 -0.16802,-0.174071 -0.42084,-0.257406 -0.66048,-0.231195 z" />
    <path
       id="path1462"
       style="fill:#ffd502;fill-opacity:1;stroke:none;stroke-width:0.204301;stroke-linecap:square;stroke-linejoin:round;stroke-miterlimit:4;stroke-dasharray:none;stroke-opacity:1"
       d="m 165.66808,54.169767 c -1.86041,1.980489 -3.74745,3.938856 -5.48765,6.027775 -3.28303,3.895125 -6.3859,7.941601 -9.32902,12.099074 -1.30923,1.88829 -2.63427,3.776425 -3.71726,5.806825 -0.24561,0.530395 -0.59735,1.104 -0.45795,1.7104 0.14052,0.457027 0.65108,0.600653 1.00675,0.849993 3.41661,2.0051 6.84037,3.999009 10.29093,5.945006 0.91519,0.487944 1.8111,1.038427 2.80229,1.360307 0.49629,0.172437 1.10969,0.05116 1.40833,-0.408694 1.20127,-1.732354 2.36045,-3.534737 3.52159,-5.268031 1.4263,-2.116998 2.95087,-4.211268 4.50806,-6.204998 1.97571,-2.533905 4.07507,-4.970894 6.29993,-7.289329 0.61185,-0.663169 1.25524,-1.307375 1.84745,-1.982363 0.043,-0.218716 0.2484,-0.446489 0.0797,-0.653387 -0.14029,-0.362743 -0.49884,-0.572463 -0.7435,-0.862021 -3.6989,-3.715006 -7.39802,-7.429801 -11.09722,-11.144492 -0.1864,-0.03947 -0.37794,-0.205818 -0.56095,-0.16167 -0.12381,0.05853 -0.24764,0.117071 -0.37145,0.175605 z" />
    <path
       id="path1464"
       style="fill:#ffd502;fill-opacity:1;stroke:none;stroke-width:0.204301;stroke-linecap:square;stroke-linejoin:round;stroke-miterlimit:4;stroke-dasharray:none;stroke-opacity:1"
       d="m 146.53937,79.917726 c -0.49917,0.181984 -0.71573,0.719687 -0.99763,1.127489 -1.38158,2.366218 -2.58844,4.829244 -3.78812,7.291121 -1.37829,2.860977 -2.69739,5.754693 -3.79064,8.738256 -1.25895,3.398118 -2.46158,6.819288 -3.51723,10.286508 -0.1651,0.64271 -0.42353,1.27854 -0.43545,1.94865 0.0153,0.26519 0.23391,0.44668 0.43136,0.59098 1.4264,0.48702 2.89039,0.8577 4.33825,1.27583 3.75082,1.03734 7.50631,2.05904 11.27283,3.03757 0.25539,0.052 0.55041,0.0287 0.73873,-0.17231 0.33968,-0.41891 0.46805,-0.96356 0.67317,-1.45385 0.72651,-2.00338 1.30184,-4.05796 2.04322,-6.05641 1.81947,-5.03777 3.95857,-9.962551 6.44625,-14.707058 0.51556,-1.002611 1.03113,-2.005222 1.54669,-3.007836 -0.0185,-0.190459 0.0773,-0.420491 -0.0165,-0.584897 -0.16436,-0.255627 -0.42739,-0.391613 -0.68655,-0.532299 -4.16366,-2.380521 -8.29136,-4.825499 -12.50823,-7.111444 -0.46766,-0.226421 -0.91048,-0.532358 -1.412,-0.672617 -0.11228,0.0033 -0.22735,-0.01226 -0.33813,0.0023 z" />
    <path
       id="path1466"
       style="fill:#ffd502;fill-opacity:1;stroke:none;stroke-width:0.204301;stroke-linecap:square;stroke-linejoin:round;stroke-miterlimit:4;stroke-dasharray:none;stroke-opacity:1"
       d="m 134.00143,109.6119 c -0.17097,0.20725 -0.3179,0.42641 -0.36128,0.69687 -0.52604,1.76704 -0.86395,3.58267 -1.2395,5.38577 -0.58908,2.96134 -1.1674,5.92682 -1.60873,8.91436 -0.54946,4.00551 -0.9356,8.03526 -1.11908,12.07449 -0.0726,1.5951 -0.0447,3.19218 -0.0534,4.78835 0.10382,0.16027 0.12257,0.41147 0.28241,0.5118 0.22954,0.10897 0.46813,0.16791 0.72295,0.13745 5.41614,0 10.83227,0 16.24841,0 0.16103,-0.1037 0.40988,-0.12369 0.51297,-0.28259 0.14449,-0.2554 0.15461,-0.53939 0.1549,-0.82548 0.14377,-3.32193 0.22076,-6.64988 0.56659,-9.95916 0.15078,-1.53867 0.33616,-3.07532 0.54886,-4.58965 0.37582,-2.66248 0.84056,-5.30049 1.42095,-7.93762 0.27813,-1.3151 0.59701,-2.62567 0.76918,-3.95997 0.0544,-0.31419 -0.25927,-0.48717 -0.41489,-0.71703 -1.32612,-0.41852 -2.67615,-0.76057 -4.01557,-1.13492 -3.95814,-1.07692 -7.92337,-2.12749 -11.88521,-3.19072 -0.17652,0.0293 -0.35303,0.0587 -0.52955,0.088 z" />
    <path
       id="path1468"
       style="fill:#ffd502;fill-opacity:1;stroke:none;stroke-width:0.204301;stroke-linecap:square;stroke-linejoin:round;stroke-miterlimit:4;stroke-dasharray:none;stroke-opacity:1"
       d="m 129.67642,141.70168 c -0.095,0.25204 -0.20037,0.50253 -0.14559,0.77692 0.15899,3.71155 0.25962,7.42872 0.63333,11.12697 0.65988,6.74812 2.02616,13.40041 3.46038,20.01928 0.1358,0.13357 0.20742,0.37803 0.38555,0.43844 0.25866,0.0496 0.51445,0.0599 0.762,-0.0431 4.46565,-1.21651 8.94293,-2.3948 13.41379,-3.59875 0.73175,-0.22586 1.50979,-0.38051 2.15847,-0.80604 0.43407,-0.28457 0.57486,-0.85465 0.43096,-1.33622 -0.91642,-4.32485 -1.81874,-8.6589 -2.38887,-13.04562 -0.0541,-0.45048 -0.12317,-0.97542 -0.17354,-1.45636 -0.16185,-1.45072 -0.27886,-2.90607 -0.36931,-4.36288 -0.0364,-0.64358 -0.0755,-1.35297 -0.10296,-2.02234 -0.0759,-1.76312 -0.14363,-3.52661 -0.21631,-5.28989 -0.11019,-0.15668 -0.14022,-0.40441 -0.30314,-0.50106 -0.25148,-0.12708 -0.52311,-0.13646 -0.79889,-0.12159 -5.41896,0 -10.83792,0 -16.25688,0 -0.163,0.0742 -0.32601,0.14822 -0.48901,0.22234 z" />
    <path
       id="path1470"
       style="fill:#ff0000;fill-opacity:1;stroke:none;stroke-width:0.204301;stroke-linecap:square;stroke-linejoin:round;stroke-miterlimit:4;stroke-dasharray:none;stroke-opacity:1"
       d="m 303.80846,27.981583 c -0.67827,0.06063 -1.04959,0.718279 -1.34948,1.250125 -0.88706,1.67725 -1.60691,3.436094 -2.37213,5.170682 -1.19042,2.755237 -2.3902,5.507585 -3.4928,8.299463 -0.10394,0.274111 -0.24369,0.554297 -0.16154,0.854146 0.0495,0.387566 0.46841,0.563668 0.75863,0.759292 2.01151,1.175521 4.10556,2.203026 6.20152,3.217742 1.10344,0.510078 2.19719,1.071741 3.3758,1.388836 0.42138,0.119841 0.9476,0.0651 1.19969,-0.337614 1.03731,-1.571474 1.96696,-3.211243 2.92608,-4.830963 1.34365,-2.326127 2.70534,-4.642827 3.98303,-7.00613 0.3358,-0.67991 0.75837,-1.353641 0.84941,-2.120399 0.0619,-0.528039 -0.31095,-0.985799 -0.75935,-1.214027 -1.94217,-1.108419 -3.95018,-2.096475 -5.94428,-3.107057 -1.54054,-0.760793 -3.06973,-1.550094 -4.65144,-2.222749 -0.17909,-0.0696 -0.36975,-0.116065 -0.56314,-0.101344 z" />
    <path
       id="path1472"
       style="fill:#ff0000;fill-opacity:1;stroke:none;stroke-width:0.204301;stroke-linecap:square;stroke-linejoin:round;stroke-miterlimit:4;stroke-dasharray:none;stroke-opacity:1"
       d="m 316.17159,34.396878 c -0.49354,0.05121 -0.69124,0.556726 -0.92902,0.919622 -1.95337,3.269076 -3.83477,6.580959 -5.71033,9.895238 -0.66113,1.193604 -1.36077,2.368404 -1.96316,3.592948 -0.0753,0.283439 -0.0532,0.611328 0.17167,0.826615 0.78279,0.7643 1.78802,1.237283 2.70726,1.811588 0.52681,0.320413 1.10149,0.68817 1.63709,1.042539 3.69725,2.464294 7.22142,5.180545 10.64219,8.013643 1.7317,1.429956 3.40428,2.928903 5.06754,4.437154 0.46118,0.379759 0.8806,0.827083 1.4069,1.117167 0.25241,0.01526 0.54607,0.05923 0.73946,-0.148019 1.35423,-1.21737 2.62936,-2.520082 3.9294,-3.794657 2.56605,-2.554633 5.11362,-5.127796 7.67082,-7.691381 0.0389,-0.186855 0.20315,-0.378867 0.15936,-0.56232 -0.0901,-0.241094 -0.21865,-0.454728 -0.42754,-0.610732 -1.77593,-1.704605 -3.53629,-3.427542 -5.40514,-5.031537 -2.33572,-2.048503 -4.7453,-4.013262 -7.2472,-5.855801 -3.14845,-2.319225 -6.34854,-4.574312 -9.66794,-6.643564 -0.78302,-0.461244 -1.55027,-0.977218 -2.41355,-1.277099 -0.11927,-0.03571 -0.24359,-0.04852 -0.36781,-0.0414 z" />
    <path
       id="path1474"
       style="fill:#ff0000;fill-opacity:1;stroke:none;stroke-width:0.204301;stroke-linecap:square;stroke-linejoin:round;stroke-miterlimit:4;stroke-dasharray:none;stroke-opacity:1"
       d="m 341.32097,54.162799 c -3.87789,3.873914 -7.75611,7.747499 -11.63469,11.620756 -0.0407,0.187219 -0.20231,0.377148 -0.16326,0.562577 0.0787,0.293711 0.28758,0.503719 0.49163,0.716833 1.65671,1.820009 3.349,3.654525 4.91446,5.527339 2.14084,2.543497 4.16689,5.183007 6.07897,7.902566 0.2684,0.390643 0.56758,0.811665 0.83549,1.207623 1.45334,2.123851 2.82718,4.302514 4.32547,6.395279 0.13482,0.19809 0.40776,0.194295 0.60761,0.296503 0.49256,-0.116593 0.90438,-0.440855 1.35316,-0.663391 3.89368,-2.206043 7.76256,-4.456288 11.60738,-6.746407 0.41816,-0.272347 0.88235,-0.487139 1.25277,-0.824686 0.3887,-0.472166 0.16596,-1.125366 -0.0352,-1.628711 -0.64075,-1.480873 -1.53235,-2.83541 -2.40108,-4.189506 -2.56345,-3.876773 -5.37002,-7.588211 -8.28851,-11.20349 -2.09498,-2.586235 -4.28058,-5.10082 -6.6048,-7.484185 -0.48339,-0.492902 -0.94595,-1.016497 -1.44216,-1.490428 -0.20544,-0.04443 -0.41384,-0.267787 -0.61615,-0.122634 -0.0936,0.04132 -0.18738,0.08264 -0.28108,0.123962 z" />
    <path
       id="path1476"
       style="fill:#ff0000;fill-opacity:1;stroke:none;stroke-width:0.204301;stroke-linecap:square;stroke-linejoin:round;stroke-miterlimit:4;stroke-dasharray:none;stroke-opacity:1"
       d="m 361.06979,79.719464 c -3.79303,2.201209 -7.61641,4.350724 -11.37518,6.610406 -0.9277,0.574585 -1.88292,1.112745 -2.75834,1.76596 -0.24362,0.161115 -0.22575,0.457112 -0.25783,0.713869 0.28134,0.794402 0.68021,1.543296 1.03254,2.308308 1.17012,2.459741 2.40445,4.854125 3.51455,7.337351 1.53782,3.395632 2.90034,6.872192 4.03261,10.424302 0.18127,0.57354 0.37925,1.21294 0.55675,1.8149 0.47995,1.60307 0.93334,3.21523 1.42645,4.81369 0.23935,0.57819 0.9708,0.75387 1.52106,0.55194 4.59287,-1.28003 9.25028,-2.48901 13.86015,-3.7739 0.49921,-0.1555 1.02675,-0.25315 1.50536,-0.45626 0.16978,-0.16984 0.41327,-0.31075 0.39566,-0.58465 -0.0349,-0.6324 -0.25835,-1.23812 -0.40993,-1.84963 -0.88216,-3.10215 -1.86198,-6.17658 -2.91092,-9.22622 -1.40778,-3.994795 -3.07987,-7.892164 -4.86919,-11.729549 -1.11686,-2.403042 -2.33686,-4.756339 -3.61599,-7.076678 -0.26346,-0.467203 -0.49901,-0.958393 -0.77987,-1.410662 -0.18666,-0.09667 -0.32937,-0.367011 -0.56261,-0.279693 -0.10174,0.01551 -0.20351,0.03101 -0.30527,0.04652 z" />
    <path
       id="path1478"
       style="fill:#ff0000;fill-opacity:1;stroke:none;stroke-width:0.204301;stroke-linecap:square;stroke-linejoin:round;stroke-miterlimit:4;stroke-dasharray:none;stroke-opacity:1"
       d="m 373.77052,111.60464 c -1.75392,0.37368 -3.48259,0.85829 -5.22068,1.29873 -3.55316,0.9336 -7.10123,1.88641 -10.6516,2.83055 -0.12843,0.14154 -0.36462,0.2245 -0.4221,0.40461 -0.0669,0.27638 -0.017,0.54566 0.0633,0.81311 0.44687,1.82988 0.84957,3.67075 1.17158,5.52695 0.0836,0.50673 0.1872,1.08361 0.26817,1.61945 0.62512,3.95118 1.05221,8.01318 1.33464,12.00731 0.12761,1.80077 0.22184,3.60371 0.33103,5.40566 0.11277,0.15496 0.14737,0.40126 0.31157,0.49601 0.39994,0.19177 0.84872,0.0892 1.27629,0.11461 5.18017,-1.3e-4 10.36034,1.5e-4 15.54047,6.4e-4 0.15983,-0.10419 0.41241,-0.12275 0.51103,-0.28336 0.1064,-0.23586 0.16783,-0.47897 0.12856,-0.73836 -0.063,-2.52494 -0.1037,-5.05218 -0.31851,-7.5701 -0.39259,-4.9028 -1.0006,-9.78845 -1.80116,-14.64111 -0.34371,-1.95627 -0.67172,-3.92362 -1.24112,-5.82958 -0.17656,-0.50866 -0.32898,-1.12582 -0.84369,-1.39684 -0.13673,-0.0618 -0.2902,-0.0684 -0.43769,-0.0582 z" />
    <path
       id="path1480"
       style="fill:#ff0000;fill-opacity:1;stroke:none;stroke-width:0.204301;stroke-linecap:square;stroke-linejoin:round;stroke-miterlimit:4;stroke-dasharray:none;stroke-opacity:1"
       d="m 369.53676,141.47934 c -2.74546,0 -5.49093,0 -8.23639,0 -0.16148,0.10358 -0.40903,0.12405 -0.51368,0.28233 -0.21469,0.38656 -0.14085,0.83974 -0.19341,1.26373 -0.17112,2.73909 -0.34618,5.49544 -0.60962,8.21013 -0.19216,2.0367 -0.41898,4.03145 -0.69432,6.05446 -0.18527,1.3423 -0.38862,2.65283 -0.62222,3.99723 -0.11976,0.67043 -0.25566,1.41183 -0.39689,2.10675 -0.2974,1.55035 -0.69335,3.07897 -1.06028,4.6135 -0.072,0.4547 -0.26703,0.92967 -0.12,1.38677 0.20701,0.18582 0.38545,0.4239 0.68057,0.45867 3.82214,1.08139 7.65782,2.11503 11.50153,3.11725 1.24017,0.30729 2.47226,0.65695 3.72758,0.89667 0.57662,0.0827 1.08608,-0.34088 1.29517,-0.85092 0.44829,-1.0365 0.64658,-2.15831 0.90327,-3.25259 0.90674,-4.22035 1.73955,-8.4618 2.25799,-12.74963 0.46162,-3.7017 0.68747,-7.42789 0.81574,-11.15469 0.0498,-1.23523 0.0995,-2.47046 0.14929,-3.7057 -0.0977,-0.16343 -0.10542,-0.41745 -0.26235,-0.52121 -0.23538,-0.11424 -0.47862,-0.18744 -0.74241,-0.15335 -2.62654,2e-4 -5.25308,4e-4 -7.87961,6e-4 z" />
    <path
       style="fill:#ffffff;fill-opacity:1;stroke:#ffffff;stroke-width:1.19485;stroke-linecap:square;stroke-linejoin:round;stroke-miterlimit:4;stroke-dasharray:none;stroke-dashoffset:0;stroke-opacity:1"
       d="m 158.13805,164.52066 c -1.89401,-8.5281 -2.50984,-14.09463 -2.50984,-22.68661 0,-7.35056 0.5168,-12.90763 1.79755,-19.32866 2.90955,-14.58702 8.8606,-27.766783 18.17025,-40.241586 3.15389,-4.226173 14.03977,-15.647951 14.68565,-15.408603 0.17992,0.06667 2.33833,2.536084 4.79645,5.487578 l 4.46934,5.366353 -4.03993,3.970376 c -11.92234,11.717054 -20.01691,26.300622 -23.47855,42.300092 -1.32635,6.13028 -1.77398,10.58295 -1.7785,17.69065 -0.005,7.27216 0.31185,10.58224 1.63963,17.14975 0.44984,2.22507 0.77106,4.08867 0.71382,4.14135 -0.0962,0.0885 -13.64298,3.77064 -13.87237,3.77064 -0.0563,0 -0.32339,-0.9951 -0.5935,-2.21133 z"
       id="path1490" />
    <circle
       style="fill:#ffffff;fill-opacity:1;stroke:#ffffff;stroke-width:1.22575;stroke-linecap:square;stroke-linejoin:round;stroke-miterlimit:4;stroke-dasharray:none;stroke-opacity:1"
       id="circle839"
       cx="254"
       cy="141.80112"
       r="7.603714" />
    <path
       id="circle876"
       style="fill:none;fill-opacity:1;stroke:#ffffff;stroke-width:1.226;stroke-linecap:square;stroke-linejoin:round;stroke-miterlimit:4;stroke-dasharray:none;stroke-opacity:1"
       d="M 150.88698,169.43033 A 106.75049,106.75049 0 0 1 147.24951,141.80112 106.75049,106.75049 0 0 1 254,35.050632 106.75049,106.75049 0 0 1 360.7505,141.80112 v 0 a 106.75049,106.75049 0 0 1 -3.63748,27.62918 m 0,-2.6e-4 16.82176,4.50738 m -13.18431,-32.1363 h 17.41467 m -20.56086,-25.72328 16.8243,-4.50806 M 341.798,54.003117 329.48365,66.317476 m 16.96466,22.108591 15.08183,-8.707511 M 307.37521,49.35254 316.08257,34.270966 M 286.13629,21.866815 281.6289,38.688578 M 150.88687,169.4302 134.06569,173.93742 M 254,35.050641 v -17.41465 m -27.62909,21.052 -4.50722,-16.821176 m -21.23875,27.486 -8.70751,-15.081849 M 178.51635,66.317473 166.20199,54.003117 m -4.65058,34.422788 -15.08157,-8.707349 m 4.41761,34.453644 -16.82176,-4.50738 m 13.18382,32.1363 h -17.41465 m 4.23078,32.13608 A 124.16513,124.16513 0 0 1 129.83487,141.80112 124.16513,124.16513 0 0 1 254,17.635991 124.16513,124.16513 0 0 1 378.16511,141.80112 v 0 a 124.16513,124.16513 0 0 1 -4.23078,32.13619" />
    <text
       xml:space="preserve"
       style="font-size:25.4px;line-height:1.25;font-family:Arial;-inkscape-font-specification:Arial;text-align:end;text-anchor:end;stroke-width:0.264583;fill:#ffffff;"
       x="206.375"
       y="219.22618"
       id="text1039"><tspan
         sodipodi:role="line"
         id="tspan1037"
         x="206.375"
         y="219.22618"
         style="stroke-width:0.264583;fill:#ffffff;" /></text>
    <text
       xml:space="preserve"
       style="font-size:25.4px;line-height:1.25;font-family:Arial;-inkscape-font-specification:Arial;text-align:end;text-anchor:end;stroke-width:0.264583"
       x="175.00298"
       y="215.8244"
       id="text1043"><tspan
         sodipodi:role="line"
         id="tspan1041"
         x="175.00298"
         y="215.8244"
         style="stroke-width:0.264583" /></text>
    <text
       xml:space="preserve"
       style="font-size:50.8px;line-height:1.25;font-family:Arial;-inkscape-font-specification:Arial;text-align:end;text-anchor:end;fill:#ffffff;fill-opacity:1;stroke-width:0.264583"
       x="212.04465"
       y="200.32739"
       id="text1047"><tspan
         sodipodi:role="line"
         id="tspan1045"
         x="212.04465"
         y="200.32739"
         style="fill:#ffffff;fill-opacity:1;stroke-width:0.264583" /></text>
    <text
       xml:space="preserve"
       style="font-size:50.8px;line-height:1.25;font-family:Arial;-inkscape-font-specification:Arial;text-align:end;text-anchor:end;stroke-width:0.264583"
       x="201.52122"
       y="218.09193"
       id="text1051"><tspan
         sodipodi:role="line"
         id="tspan1049"
         x="201.52122"
         y="218.09193"
         style="stroke-width:0.264583" /></text>
    <text
       xml:space="preserve"
       style="font-size:50.8px;line-height:1.25;font-family:Arial;-inkscape-font-specification:Arial;text-align:end;text-anchor:end;stroke-width:0.264583"
       x="79.646317"
       y="194.03767"
       id="text1055"><tspan
         sodipodi:role="line"
         id="tspan1053"
         x="79.646317"
         y="194.03767"
         style="stroke-width:0.264583" /></text>
    <circle
       id="path1057"
       style="fill:#ffffff;stroke:#ffffff;stroke-width:0.264583"
       cx="22.985178"
       cy="231.98996"
       r="0.09419246" />
    <circle
       id="path1059"
       style="fill:#ffffff;stroke:#ffffff;stroke-width:0.264583"
       cx="90.337097"
       cy="194.57222"
       r="0.09419246" />
    <text
       xml:space="preserve"
       style="font-size:50.8px;line-height:1.25;font-family:Arial;-inkscape-font-specification:Arial;text-align:end;text-anchor:end;stroke-width:0.264583"
       x="74.835464"
       y="55.057518"
       id="text1067"><tspan
         sodipodi:role="line"
         id="tspan1065"
         x="74.835464"
         y="55.057518"
         style="stroke-width:0.264583" /></text>
    <text
       xml:space="preserve"
       style="font-size:50.8px;line-height:1.25;font-family:Arial;-inkscape-font-specification:Arial;text-align:end;text-anchor:end;stroke-width:0.264583"
       x="261.92413"
       y="246.95703"
       id="text1071"><tspan
         sodipodi:role="line"
         id="tspan1069"
         x="261.92413"
         y="246.95703"
         style="stroke-width:0.264583" /></text>
    <text
       xml:space="preserve"
       style="font-size:61.6073px;line-height:1.25;font-family:Arial;-inkscape-font-specification:Arial;text-align:center;text-anchor:middle;fill:#ffffff;fill-opacity:1;stroke-width:0.320872"
       x="253.71423"
       y="216.72935"
       id="text1075"><tspan
         sodipodi:role="line"
         id="tspan1073"
         x="253.71423"
         y="216.72935"
         style="text-align:center;text-anchor:middle;fill:#ffffff;fill-opacity:1;stroke-width:0.320872">43 <tspan
   style="font-size:30.8037px;stroke-width:0.320872"
   id="tspan1079">cNm</tspan></tspan></text>
    <text
       xml:space="preserve"
       style="font-size:22.8272px;line-height:1.25;font-family:Arial;-inkscape-font-specification:Arial;text-align:center;text-anchor:middle;fill:#ffffff;fill-opacity:1;stroke-width:0.237784"
       x="254.69731"
       y="254.71246"
       id="text1083"><tspan
         sodipodi:role="line"
         id="tspan1081"
         x="254.69731"
         y="254.71246"
         style="font-size:22.8272px;text-align:center;text-anchor:middle;fill:#ffffff;fill-opacity:1;stroke-width:0.237784">Target: 81 cNm</tspan></text>
    <path
       style="fill:none;stroke:#ffffff;stroke-width:3.67724;stroke-linecap:butt;stroke-linejoin:miter;stroke-miterlimit:4;stroke-dasharray:none;stroke-opacity:1"
       d="M 254,141.80112 190.13351,65.486046"
       id="path1085"
       inkscape:transform-center-x="31.933245"
       inkscape:transform-center-y="-38.157541" />
    <path
       id="path1365"
       style="fill:none;fill-opacity:1;stroke:#ffffff;stroke-width:1.22575;stroke-linecap:square;stroke-linejoin:round;stroke-miterlimit:4;stroke-dasharray:none;stroke-opacity:1"
       d="m 158.14538,167.48512 a 99.235952,99.235942 0 0 1 -3.38134,-25.684 A 99.235952,99.235942 0 0 1 254,42.565178 99.235952,99.235942 0 0 1 353.23596,141.80112 v 0 a 99.235952,99.235942 0 0 1 -3.38137,25.68411" />
    <path
       id="ellipse1367"
       style="fill:none;fill-opacity:1;stroke:#ffffff;stroke-width:1.22575;stroke-linecap:square;stroke-linejoin:round;stroke-miterlimit:4;stroke-dasharray:none;stroke-opacity:1"
       d="M 173.56748,163.35354 A 83.270013,83.270003 0 0 1 170.72998,141.80112 83.270013,83.270003 0 0 1 254,58.531117 83.270013,83.270003 0 0 1 337.27003,141.80112 v 0 a 83.270013,83.270003 0 0 1 -2.83741,21.552" />
    <path
       style="fill:none;stroke:#ffffff;stroke-width:1.22575;stroke-linecap:butt;stroke-linejoin:miter;stroke-miterlimit:4;stroke-dasharray:none;stroke-opacity:1"
       d="m 150.88697,169.43033 22.6804,-6.0772"
       id="path1369" />
    <path
       style="fill:none;stroke:#ffffff;stroke-width:1.22575;stroke-linecap:butt;stroke-linejoin:miter;stroke-miterlimit:4;stroke-dasharray:none;stroke-opacity:1"
       d="m 357.11308,169.43006 -22.68039,-6.0772"
       id="path1371" />
    <path
       style="fill:none;fill-opacity:1;stroke:#ffffff;stroke-width:0.980597;stroke-linecap:butt;stroke-linejoin:miter;stroke-miterlimit:4;stroke-dasharray:2.94179, 2.94179;stroke-dashoffset:0;stroke-opacity:1"
       d="M 254,141.80112 288.67196,22.575141"
       id="path1410" />
    <text
       xml:space="preserve"
       style="font-size:15.7758px;line-height:1.25;font-family:Arial;-inkscape-font-specification:Arial;text-align:center;text-anchor:middle;fill:#ffffff;fill-opacity:1;stroke-width:0.164332"
       x="253.88832"
       y="274.92093"
       id="text1083-3"><tspan
         sodipodi:role="line"
         id="tspan1081-9"
         x="253.88832"
         y="274.92093"
         style="font-size:15.7758px;text-align:center;text-anchor:middle;fill:#ffffff;fill-opacity:1;stroke-width:0.164332">Range: 76-86 cNm</tspan></text>
    <path
       id="path1440"
       style="fill:none;stroke:#ffffff;stroke-width:0.8;stroke-linecap:butt;stroke-linejoin:miter;stroke-miterlimit:4;stroke-dasharray:none;stroke-opacity:1;stroke-dashoffset:0"
       d="m 296.48226,43.610948 6.82145,-15.766497" />
    <path
       id="path1485"
       style="fill:none;stroke:#ffffff;stroke-width:0.8;stroke-linecap:butt;stroke-linejoin:miter;stroke-miterlimit:4;stroke-dasharray:none;stroke-opacity:1;stroke-dashoffset:0"
       d="m 273.58055,19.189617 -2.70894,16.963078" />
    <path
       id="path1492"
       style="fill:none;fill-opacity:1;stroke:#ffffff;stroke-width:1.22575;stroke-linecap:butt;stroke-linejoin:miter;stroke-miterlimit:4;stroke-dasharray:none;stroke-dashoffset:0;stroke-opacity:1"
       d="m 288.67179,22.575725 1.6e-4,-5.84e-4" />
    <path
       id="path1498"
       style="fill:none;fill-opacity:1;stroke:#ffffff;stroke-width:1.22575;stroke-linecap:butt;stroke-linejoin:miter;stroke-miterlimit:4;stroke-dasharray:none;stroke-dashoffset:0;stroke-opacity:1"
       d="m 283.80912,39.296844 4.86267,-16.721119" />
  </g>
</svg>
